<?xml version="1.0" encoding="iso-8859-1"?>
<!-- Uploaded to: SVG Repo, www.svgrepo.com, Transformed by: SVG Repo Mixer Tools -->
<svg height="800px" width="800px" version="1.1" id="Capa_1" xmlns="http://www.w3.org/2000/svg" xmlns:xlink="http://www.w3.org/1999/xlink" 
	 viewBox="0 0 48.875 48.875" xml:space="preserve">
<g>
	<g>
		<g>
			<path style="fill:#010002;" d="M44.51,48.874H4.365C1.958,48.874,0,46.916,0,44.51V19.326c0-2.407,1.958-4.364,4.365-4.364H44.51
				c2.407,0,4.365,1.958,4.365,4.364V44.51C48.875,46.917,46.917,48.874,44.51,48.874z M4.489,44.386h39.897V19.45H4.489V44.386z"/>
		</g>
		<g>
			<path style="fill:#010002;" d="M43.878,11.969H4.997c-1.24,0-2.244-1.005-2.244-2.245c0-1.239,1.004-2.244,2.244-2.244h38.881
				c1.239,0,2.244,1.005,2.244,2.244C46.122,10.964,45.117,11.969,43.878,11.969z"/>
		</g>
		<g>
			<path style="fill:#010002;" d="M38.306,4.489H10.568c-1.24,0-2.244-1.005-2.244-2.244s1.004-2.244,2.244-2.244h27.738
				c1.24,0,2.245,1.005,2.245,2.244S39.546,4.489,38.306,4.489z"/>
		</g>
	</g>
</g>
</svg>